# xmcd CD database file
#
# Track frame offsets:
#	150
#	11359
#	24432
#	42070
#	55235
#	74292
#	86580
#	102762
#	116225
#	131212
#	145825
#	161172
#
# Disc length: 2366 seconds
#
# Revision: 0
# Processed by: cddbd v1.5.1PL0 Copyright (c) Steve Scherf et al.
# Submitted via: CDex 1.40Beta6
#
DISCID=9f093c0c
DTITLE=Gilberto and gilmar - cd duplo
DYEAR=2000
DGENRE=Country
TTITLE0=Àssino com x
TTITLE1=Musica da saudade
TTITLE2=ta ruim mas ta bom
TTITLE3=capa de revista
TTITLE4=foi sem querer
TTITLE5=fome de amor
TTITLE6=com o pé na UTI
TTITLE7=só mais uma vez
TTITLE8=luz do amanhecer
TTITLE9=mais que paixao
TTITLE10=Volta amor
TTITLE11=Parece castigo
EXTD=
EXTT0=
EXTT1=
EXTT2=
EXTT3=
EXTT4=
EXTT5=
EXTT6=
EXTT7=
EXTT8=
EXTT9=
EXTT10=
EXTT11=
PLAYORDER=
